<mxfile host="Electron" modified="2023-12-18T15:06:18.929Z" agent="Mozilla/5.0 (Windows NT 10.0; Win64; x64) AppleWebKit/537.36 (KHTML, like Gecko) draw.io/22.1.2 Chrome/114.0.5735.289 Electron/25.9.4 Safari/537.36" etag="hF8l89RZVLzpJUkTWRmd" version="22.1.2" type="device">
  <diagram name="Page-1" id="k6JKA835IhQfx72QY5PO">
    <mxGraphModel dx="2759" dy="2260" grid="1" gridSize="10" guides="1" tooltips="1" connect="1" arrows="1" fold="1" page="1" pageScale="1" pageWidth="850" pageHeight="1100" math="0" shadow="0">
      <root>
        <mxCell id="0" />
        <mxCell id="1" parent="0" />
        <mxCell id="uMTLoF_JQ7R7mOff0nbM-1" value="Power BI Desktop" style="rounded=1;whiteSpace=wrap;html=1;" vertex="1" parent="1">
          <mxGeometry x="20" y="830" width="170" height="60" as="geometry" />
        </mxCell>
        <mxCell id="uMTLoF_JQ7R7mOff0nbM-2" value="Power BI" style="rounded=1;whiteSpace=wrap;html=1;" vertex="1" parent="1">
          <mxGeometry x="210" y="750" width="110" height="60" as="geometry" />
        </mxCell>
        <mxCell id="uMTLoF_JQ7R7mOff0nbM-4" value="DAX" style="rounded=0;whiteSpace=wrap;html=1;" vertex="1" parent="1">
          <mxGeometry x="670" y="250" width="120" height="60" as="geometry" />
        </mxCell>
        <mxCell id="uMTLoF_JQ7R7mOff0nbM-6" value="DATAWARE HOUSE" style="rounded=0;whiteSpace=wrap;html=1;" vertex="1" parent="1">
          <mxGeometry x="670" y="-40" width="365" height="110" as="geometry" />
        </mxCell>
        <mxCell id="uMTLoF_JQ7R7mOff0nbM-7" value="LOAD" style="shape=process;whiteSpace=wrap;html=1;backgroundOutline=1;" vertex="1" parent="1">
          <mxGeometry x="1370" y="240" width="120" height="60" as="geometry" />
        </mxCell>
        <mxCell id="uMTLoF_JQ7R7mOff0nbM-8" value="TRANSFORM" style="shape=process;whiteSpace=wrap;html=1;backgroundOutline=1;" vertex="1" parent="1">
          <mxGeometry x="1370" y="150" width="120" height="60" as="geometry" />
        </mxCell>
        <mxCell id="uMTLoF_JQ7R7mOff0nbM-10" value="Vertical Flow Layout" style="swimlane;startSize=20;horizontal=1;childLayout=flowLayout;flowOrientation=north;resizable=0;interRankCellSpacing=50;containerType=tree;fontSize=12;" vertex="1" parent="1">
          <mxGeometry x="20" y="60" width="270" height="280" as="geometry" />
        </mxCell>
        <mxCell id="uMTLoF_JQ7R7mOff0nbM-11" value="DATA-WH" style="whiteSpace=wrap;html=1;" vertex="1" parent="uMTLoF_JQ7R7mOff0nbM-10">
          <mxGeometry x="85" y="40" width="100" height="40" as="geometry" />
        </mxCell>
        <mxCell id="uMTLoF_JQ7R7mOff0nbM-12" value="Excel POWER BI" style="whiteSpace=wrap;html=1;" vertex="1" parent="uMTLoF_JQ7R7mOff0nbM-10">
          <mxGeometry x="20" y="130" width="100" height="40" as="geometry" />
        </mxCell>
        <mxCell id="uMTLoF_JQ7R7mOff0nbM-13" value="" style="html=1;rounded=1;curved=0;sourcePerimeterSpacing=0;targetPerimeterSpacing=0;startSize=6;endSize=6;noEdgeStyle=1;orthogonal=1;" edge="1" parent="uMTLoF_JQ7R7mOff0nbM-10" source="uMTLoF_JQ7R7mOff0nbM-11" target="uMTLoF_JQ7R7mOff0nbM-12">
          <mxGeometry relative="1" as="geometry">
            <Array as="points">
              <mxPoint x="112.5" y="92" />
              <mxPoint x="70" y="118" />
            </Array>
          </mxGeometry>
        </mxCell>
        <mxCell id="uMTLoF_JQ7R7mOff0nbM-14" value="WPF" style="whiteSpace=wrap;html=1;" vertex="1" parent="uMTLoF_JQ7R7mOff0nbM-10">
          <mxGeometry x="150" y="130" width="100" height="40" as="geometry" />
        </mxCell>
        <mxCell id="uMTLoF_JQ7R7mOff0nbM-15" value="" style="html=1;rounded=1;curved=0;sourcePerimeterSpacing=0;targetPerimeterSpacing=0;startSize=6;endSize=6;noEdgeStyle=1;orthogonal=1;" edge="1" parent="uMTLoF_JQ7R7mOff0nbM-10" source="uMTLoF_JQ7R7mOff0nbM-11" target="uMTLoF_JQ7R7mOff0nbM-14">
          <mxGeometry relative="1" as="geometry">
            <Array as="points">
              <mxPoint x="157.5" y="92" />
              <mxPoint x="200" y="118" />
            </Array>
          </mxGeometry>
        </mxCell>
        <mxCell id="uMTLoF_JQ7R7mOff0nbM-16" value="Reports" style="whiteSpace=wrap;html=1;" vertex="1" parent="uMTLoF_JQ7R7mOff0nbM-10">
          <mxGeometry x="85" y="220" width="100" height="40" as="geometry" />
        </mxCell>
        <mxCell id="uMTLoF_JQ7R7mOff0nbM-17" value="" style="html=1;rounded=1;curved=0;sourcePerimeterSpacing=0;targetPerimeterSpacing=0;startSize=6;endSize=6;noEdgeStyle=1;orthogonal=1;" edge="1" parent="uMTLoF_JQ7R7mOff0nbM-10" source="uMTLoF_JQ7R7mOff0nbM-12" target="uMTLoF_JQ7R7mOff0nbM-16">
          <mxGeometry relative="1" as="geometry">
            <Array as="points">
              <mxPoint x="70" y="182" />
              <mxPoint x="112.5" y="208" />
            </Array>
          </mxGeometry>
        </mxCell>
        <mxCell id="uMTLoF_JQ7R7mOff0nbM-18" value="" style="html=1;rounded=1;curved=0;sourcePerimeterSpacing=0;targetPerimeterSpacing=0;startSize=6;endSize=6;noEdgeStyle=1;orthogonal=1;" edge="1" parent="uMTLoF_JQ7R7mOff0nbM-10" source="uMTLoF_JQ7R7mOff0nbM-14" target="uMTLoF_JQ7R7mOff0nbM-16">
          <mxGeometry relative="1" as="geometry">
            <Array as="points">
              <mxPoint x="200" y="182" />
              <mxPoint x="157.5" y="208" />
            </Array>
          </mxGeometry>
        </mxCell>
        <mxCell id="uMTLoF_JQ7R7mOff0nbM-19" value="DAX" style="rounded=1;whiteSpace=wrap;html=1;shadow=0;labelBackgroundColor=none;strokeColor=none;strokeWidth=3;fillColor=#12aab5;fontFamily=Helvetica;fontSize=14;fontColor=#FFFFFF;align=center;spacing=5;fontStyle=1;arcSize=7;perimeterSpacing=2;" vertex="1" parent="1">
          <mxGeometry x="-60" y="1061" width="150" height="60" as="geometry" />
        </mxCell>
        <mxCell id="uMTLoF_JQ7R7mOff0nbM-22" value="POWER PIVOT" style="rounded=1;whiteSpace=wrap;html=1;shadow=0;labelBackgroundColor=none;strokeColor=none;strokeWidth=3;fillColor=#61c6ce;fontFamily=Helvetica;fontSize=14;fontColor=#FFFFFF;align=center;spacing=5;fontStyle=0;arcSize=7;perimeterSpacing=2;" vertex="1" parent="1">
          <mxGeometry x="50" y="1190" width="150" height="60" as="geometry" />
        </mxCell>
        <mxCell id="uMTLoF_JQ7R7mOff0nbM-23" value="" style="edgeStyle=none;rounded=1;jumpStyle=none;html=1;shadow=0;labelBackgroundColor=none;startArrow=none;startFill=0;jettySize=auto;orthogonalLoop=1;strokeColor=#12AAB5;strokeWidth=3;fontFamily=Helvetica;fontSize=14;fontColor=#FFFFFF;spacing=5;fontStyle=1;fillColor=#b0e3e6;" edge="1" parent="1" source="uMTLoF_JQ7R7mOff0nbM-19" target="uMTLoF_JQ7R7mOff0nbM-22">
          <mxGeometry relative="1" as="geometry" />
        </mxCell>
        <mxCell id="uMTLoF_JQ7R7mOff0nbM-24" value="POWER BI" style="rounded=1;whiteSpace=wrap;html=1;shadow=0;labelBackgroundColor=none;strokeColor=none;strokeWidth=3;fillColor=#61c6ce;fontFamily=Helvetica;fontSize=14;fontColor=#FFFFFF;align=center;spacing=5;fontStyle=0;arcSize=7;perimeterSpacing=2;" vertex="1" parent="1">
          <mxGeometry x="150" y="1060" width="150" height="60" as="geometry" />
        </mxCell>
        <mxCell id="uMTLoF_JQ7R7mOff0nbM-25" value="" style="edgeStyle=none;rounded=1;jumpStyle=none;html=1;shadow=0;labelBackgroundColor=none;startArrow=none;startFill=0;jettySize=auto;orthogonalLoop=1;strokeColor=#12AAB5;strokeWidth=3;fontFamily=Helvetica;fontSize=14;fontColor=#FFFFFF;spacing=5;fontStyle=1;fillColor=#b0e3e6;" edge="1" parent="1" source="uMTLoF_JQ7R7mOff0nbM-19" target="uMTLoF_JQ7R7mOff0nbM-24">
          <mxGeometry relative="1" as="geometry" />
        </mxCell>
        <mxCell id="uMTLoF_JQ7R7mOff0nbM-26" value="Analysis Services" style="rounded=1;whiteSpace=wrap;html=1;shadow=0;labelBackgroundColor=none;strokeColor=none;strokeWidth=3;fillColor=#61c6ce;fontFamily=Helvetica;fontSize=14;fontColor=#FFFFFF;align=center;spacing=5;fontStyle=0;arcSize=7;perimeterSpacing=2;" vertex="1" parent="1">
          <mxGeometry x="50" y="940" width="150" height="60" as="geometry" />
        </mxCell>
        <mxCell id="uMTLoF_JQ7R7mOff0nbM-27" value="" style="edgeStyle=none;rounded=1;jumpStyle=none;html=1;shadow=0;labelBackgroundColor=none;startArrow=none;startFill=0;jettySize=auto;orthogonalLoop=1;strokeColor=#12AAB5;strokeWidth=3;fontFamily=Helvetica;fontSize=14;fontColor=#FFFFFF;spacing=5;fontStyle=1;fillColor=#b0e3e6;" edge="1" parent="1" source="uMTLoF_JQ7R7mOff0nbM-19" target="uMTLoF_JQ7R7mOff0nbM-26">
          <mxGeometry relative="1" as="geometry" />
        </mxCell>
        <mxCell id="uMTLoF_JQ7R7mOff0nbM-58" value="POWER&lt;br&gt;BI" style="verticalLabelPosition=middle;verticalAlign=top;html=1;shape=mxgraph.infographic.numberedEntryVert;dy=25;strokeColor=none;fontSize=17;fontColor=#FFFFFF;align=center;labelPosition=center;spacingTop=32;fontStyle=1;whiteSpace=wrap;fillColor=#10739E;" vertex="1" parent="1">
          <mxGeometry x="630" y="470" width="80" height="160" as="geometry" />
        </mxCell>
        <mxCell id="uMTLoF_JQ7R7mOff0nbM-59" value="POWER&lt;br&gt;Apps" style="verticalLabelPosition=middle;verticalAlign=top;html=1;shape=mxgraph.infographic.numberedEntryVert;dy=25;strokeColor=none;fontSize=17;fontColor=#FFFFFF;align=center;labelPosition=center;spacingTop=32;fontStyle=1;whiteSpace=wrap;fillColor=#F2931E;" vertex="1" parent="1">
          <mxGeometry x="715" y="470" width="80" height="160" as="geometry" />
        </mxCell>
        <mxCell id="uMTLoF_JQ7R7mOff0nbM-60" value="POWER&lt;br&gt;&lt;font style=&quot;font-size: 14px;&quot;&gt;Automate&lt;/font&gt;" style="verticalLabelPosition=middle;verticalAlign=top;html=1;shape=mxgraph.infographic.numberedEntryVert;dy=25;strokeColor=none;fontSize=17;fontColor=#FFFFFF;align=center;labelPosition=center;spacingTop=32;fontStyle=1;whiteSpace=wrap;fillColor=#AE4132;" vertex="1" parent="1">
          <mxGeometry x="800" y="470" width="80" height="160" as="geometry" />
        </mxCell>
        <mxCell id="uMTLoF_JQ7R7mOff0nbM-61" value="POWER&lt;br&gt;Virtual&lt;br&gt;Agent" style="verticalLabelPosition=middle;verticalAlign=top;html=1;shape=mxgraph.infographic.numberedEntryVert;dy=25;strokeColor=none;fontSize=17;fontColor=#FFFFFF;align=center;labelPosition=center;spacingTop=32;fontStyle=1;whiteSpace=wrap;fillColor=#23445D;" vertex="1" parent="1">
          <mxGeometry x="885" y="470" width="80" height="160" as="geometry" />
        </mxCell>
        <mxCell id="uMTLoF_JQ7R7mOff0nbM-62" value="POWER&lt;br&gt;Pages" style="verticalLabelPosition=middle;verticalAlign=top;html=1;shape=mxgraph.infographic.numberedEntryVert;dy=25;strokeColor=none;fontSize=17;fontColor=#FFFFFF;align=center;labelPosition=center;spacingTop=32;fontStyle=1;whiteSpace=wrap;fillColor=#12AAB5;" vertex="1" parent="1">
          <mxGeometry x="970" y="470" width="80" height="160" as="geometry" />
        </mxCell>
        <mxCell id="uMTLoF_JQ7R7mOff0nbM-63" value="MICROSOFT POWER PLATFORM" style="html=1;shape=mxgraph.infographic.banner;dx=32;dy=17;notch=15;fillColor=#d5e8d4;strokeColor=#82b366;align=center;verticalAlign=middle;fontSize=14;fontStyle=1;spacingBottom=15;gradientColor=#97d077;" vertex="1" parent="1">
          <mxGeometry x="630" y="641" width="420" height="70" as="geometry" />
        </mxCell>
        <mxCell id="uMTLoF_JQ7R7mOff0nbM-64" value="" style="shape=flexArrow;endArrow=classic;html=1;rounded=0;exitX=0;exitY=0.25;exitDx=0;exitDy=0;exitPerimeter=0;" edge="1" parent="1" source="uMTLoF_JQ7R7mOff0nbM-58">
          <mxGeometry width="50" height="50" relative="1" as="geometry">
            <mxPoint x="310" y="570" as="sourcePoint" />
            <mxPoint x="340" y="730" as="targetPoint" />
          </mxGeometry>
        </mxCell>
        <mxCell id="uMTLoF_JQ7R7mOff0nbM-65" value="EXTRACT" style="shape=process;whiteSpace=wrap;html=1;backgroundOutline=1;" vertex="1" parent="1">
          <mxGeometry x="1370" y="70" width="120" height="60" as="geometry" />
        </mxCell>
      </root>
    </mxGraphModel>
  </diagram>
</mxfile>
